# File produced by Open Asset Import Library (http://www.assimp.sf.net)
# (assimp v6.0.0)

mtllib couch.mtl

# 216 vertex positions
v 1.45771539 0.262177199 -2.19442797
v 1.45771539 0.248629451 -2.27244711
v 2.18707848 0.248629451 -2.27244711
v 2.18707848 0.262177199 -2.19442797
v 2.25607872 0.853712976 -2.3775177
v 2.25607872 0.870038688 -2.28350067
v 2.25607872 0.332937896 -2.19023466
v 2.25607872 0.316612124 -2.28425217
v 2.18707848 0.881843746 -2.215518
v 1.45771539 0.881843746 -2.215518
v 1.45771539 0.344742864 -2.12225199
v 2.18707848 0.344742864 -2.12225199
v 1.45771539 0.92169565 -2.38932276
v 1.45771539 0.938021362 -2.29530525
v 2.18707848 0.938021362 -2.29530525
v 2.18707848 0.92169565 -2.38932276
v 1.45771539 0.304807156 -2.35223484
v 1.42327201 0.282565087 -2.27833986
v 1.42327201 0.31069997 -2.31829929
v 1.42327201 0.298890859 -2.18432283
v 1.45090377 0.271666467 -2.17959499
v 1.45771539 0.314592838 -2.1434803
v 1.42327201 0.338850051 -2.15618753
v 1.42327201 0.887759984 -2.38343
v 1.45771539 0.841908038 -2.44550037
v 1.42327201 0.847800791 -2.41156483
v 1.42327201 0.904085815 -2.2894125
v 1.42327201 0.875950873 -2.24945354
v 2.18707848 0.304807156 -2.35223484
v 2.19389009 0.271666467 -2.17959499
v 2.18707848 0.314592838 -2.1434803
v 2.18707848 0.841908038 -2.44550037
v 1.45648038 0.263645291 -2.19319296
v 2.18831348 0.263645291 -2.19319296
v 2.18707848 0.168220997 -1.5112896
v 2.18707848 0.263645321 -1.5112896
v 1.45771539 0.263645321 -1.5112896
v 1.45771539 0.168220997 -1.5112896
v 2.25607872 0.168220967 -2.12542772
v 2.25607872 0.263645291 -2.1254282
v 2.25607872 0.263645321 -1.5802896
v 2.25607872 0.168220997 -1.5802896
v 2.18707848 0.332645297 -2.1254282
v 1.45771539 0.332645297 -2.1254282
v 1.45771539 0.332645297 -1.5802896
v 2.18707848 0.332645297 -1.5802896
v 2.18707848 0.168220997 -2.19442797
v 1.45771539 0.168220997 -2.19442797
v 1.45771539 0.0992210209 -1.5802896
v 1.42327201 0.168221056 -1.54573309
v 1.42327201 0.133664429 -1.5802896
v 1.42327201 0.298201859 -1.5802896
v 1.42327201 0.263645321 -1.54573309
v 1.45771539 0.0992209613 -2.1254282
v 1.42327201 0.133664429 -2.12542772
v 1.42327201 0.168220967 -2.15998459
v 1.42327201 0.263645291 -2.15998459
v 1.42327201 0.298201829 -2.1254282
v 2.18707848 0.0992210209 -1.5802896
v 2.18707848 0.0992209613 -2.1254282
v 0.659465432 0.262177199 -2.19442797
v 0.659465432 0.248629451 -2.27244711
v 1.38882852 0.248629451 -2.27244711
v 1.38882852 0.262177199 -2.19442797
v 1.38882852 0.881843746 -2.215518
v 0.659465432 0.881843746 -2.215518
v 0.659465432 0.344742864 -2.12225199
v 1.38882852 0.344742864 -2.12225199
v 0.590465426 0.316612124 -2.28425217
v 0.590465426 0.332937896 -2.19023466
v 0.590465426 0.870038688 -2.28350067
v 0.590465426 0.853712976 -2.3775177
v 0.659465432 0.92169565 -2.38932276
v 0.659465432 0.938021362 -2.29530525
v 1.38882852 0.938021362 -2.29530525
v 1.38882852 0.92169565 -2.38932276
v 0.659465432 0.304807156 -2.35223484
v 0.659465432 0.314592838 -2.1434803
v 0.652653813 0.271666467 -2.17959499
v 0.659465432 0.841908038 -2.44550037
v 1.38882852 0.304807156 -2.35223484
v 1.38882852 0.314592838 -2.1434803
v 1.39564013 0.271666467 -2.17959499
v 1.38882852 0.841908038 -2.44550037
v 0.658230424 0.263645291 -2.19319296
v 1.39006364 0.263645291 -2.19319296
v 1.38882852 0.168220997 -1.5112896
v 1.38882852 0.263645321 -1.5112896
v 0.659465432 0.263645321 -1.5112896
v 0.659465432 0.168220997 -1.5112896
v 1.38882852 0.332645297 -2.1254282
v 0.659465432 0.332645297 -2.1254282
v 0.659465432 0.332645297 -1.5802896
v 1.38882852 0.332645297 -1.5802896
v 0.590465426 0.168220997 -1.5802896
v 0.590465426 0.263645321 -1.5802896
v 0.590465426 0.263645291 -2.1254282
v 0.590465426 0.168220967 -2.12542772
v 1.38882852 0.168220997 -2.19442797
v 0.659465432 0.168220997 -2.19442797
v 0.659465432 0.0992210209 -1.5802896
v 0.659465432 0.0992209613 -2.1254282
v 1.38882852 0.0992210209 -1.5802896
v 1.38882852 0.0992209613 -2.1254282
v 2.25197506 0.271192998 -2.21754026
v 2.34739923 0.271192998 -2.21754026
v 2.34739923 0.271192968 -1.63421309
v 2.25197506 0.271192968 -1.63421309
v 2.25197506 0.505112886 -2.28654051
v 2.34739923 0.505112886 -2.28654051
v 2.34739923 0.340193033 -2.28654051
v 2.25197506 0.340193033 -2.28654051
v 2.41639948 0.505112827 -2.21754026
v 2.41639948 0.505112827 -1.63421309
v 2.41639948 0.340193003 -1.63421309
v 2.41639948 0.340193033 -2.21754026
v 2.25197506 0.340193003 -1.56521308
v 2.34739923 0.340193003 -1.56521308
v 2.34739923 0.505112827 -1.56521308
v 2.25197506 0.505112827 -1.56521308
v 2.25197506 0.574112833 -1.63421309
v 2.34739923 0.574112833 -1.63421309
v 2.34739923 0.574112833 -2.21754026
v 2.25197506 0.574112833 -2.21754026
v 2.18297482 0.340193003 -1.63421309
v 2.18297482 0.505112827 -1.63421309
v 2.18297482 0.340193033 -2.21754026
v 2.18297482 0.505112827 -2.21754026
v 0.498399258 0.271192998 -2.21754026
v 0.593823552 0.271192998 -2.21754026
v 0.593823671 0.271192968 -1.63421309
v 0.498399258 0.271192968 -1.63421309
v 0.498399258 0.505112886 -2.28654051
v 0.593823671 0.505112886 -2.28654051
v 0.593823552 0.340193033 -2.28654051
v 0.498399258 0.340193033 -2.28654051
v 0.662823558 0.505112827 -2.21754026
v 0.662823677 0.505112827 -1.63421309
v 0.662823677 0.340193003 -1.63421309
v 0.662823558 0.340193033 -2.21754026
v 0.498399258 0.340193003 -1.56521308
v 0.593823671 0.340193003 -1.56521308
v 0.593823671 0.505112827 -1.56521308
v 0.498399258 0.505112827 -1.56521308
v 0.498399377 0.574112833 -1.63421309
v 0.593823671 0.574112833 -1.63421309
v 0.593823671 0.574112833 -2.21754026
v 0.498399258 0.574112833 -2.21754026
v 0.429399252 0.340193003 -1.63421309
v 0.429399371 0.505112827 -1.63421309
v 0.429399252 0.340193033 -2.21754026
v 0.429399252 0.505112827 -2.21754026
v 0.75088048 0.00270726904 -1.62953091
v 0.768263221 0.115021318 -1.6056155
v 0.690154433 0.115021318 -1.6056155
v 0.707537174 0.00270726904 -1.62953091
v 0.759024858 0.00270732865 -1.68101847
v 0.782940269 0.115021318 -1.69840133
v 0.782940269 0.115021348 -1.62029254
v 0.759024858 0.00270726904 -1.6376754
v 0.768263221 0.115021348 -1.71307838
v 0.690154433 0.115021348 -1.71307838
v 0.675477386 0.115021318 -1.69840133
v 0.675477386 0.115021348 -1.62029254
v 0.699392796 0.00270726904 -1.6376754
v 0.699392796 0.00270732865 -1.68101847
v 0.707537174 0.00270726904 -1.68916309
v 0.75088048 0.00270726904 -1.68916309
v 0.75088048 0.00270726904 -2.03032446
v 0.768263221 0.115021318 -2.00640917
v 0.690154433 0.115021318 -2.00640917
v 0.707537174 0.00270726904 -2.03032446
v 0.759024858 0.00270726904 -2.08181238
v 0.782940269 0.115021288 -2.099195
v 0.782940269 0.115021318 -2.02108622
v 0.759024858 0.00270726904 -2.03846884
v 0.768263221 0.115021318 -2.11387205
v 0.690154433 0.115021318 -2.11387205
v 0.675477386 0.115021288 -2.099195
v 0.675477386 0.115021318 -2.02108622
v 0.699392796 0.00270726904 -2.03846884
v 0.699392796 0.00270726904 -2.08181238
v 0.707537174 0.00270720944 -2.08995676
v 0.75088048 0.00270720944 -2.08995676
v 2.10562134 0.00270726904 -2.03032446
v 2.12300396 0.115021318 -2.00640917
v 2.04489541 0.115021318 -2.00640917
v 2.06227827 0.00270726904 -2.03032446
v 2.11376572 0.00270726904 -2.08181238
v 2.13768101 0.115021288 -2.099195
v 2.13768101 0.115021318 -2.02108622
v 2.11376572 0.00270726904 -2.03846884
v 2.12300396 0.115021318 -2.11387205
v 2.04489541 0.115021318 -2.11387205
v 2.03021836 0.115021288 -2.099195
v 2.03021836 0.115021318 -2.02108622
v 2.05413365 0.00270726904 -2.03846884
v 2.05413365 0.00270726904 -2.08181238
v 2.06227827 0.00270720944 -2.08995676
v 2.10562134 0.00270720944 -2.08995676
v 2.10562134 0.00270726904 -1.62953067
v 2.12300396 0.115021288 -1.60561526
v 2.04489541 0.115021288 -1.60561526
v 2.06227827 0.00270726904 -1.62953067
v 2.11376572 0.00270726904 -1.68101823
v 2.13768101 0.115021288 -1.69840109
v 2.13768101 0.115021318 -1.62029231
v 2.11376572 0.00270726904 -1.63767517
v 2.12300396 0.115021318 -1.71307814
v 2.04489541 0.115021318 -1.71307814
v 2.03021836 0.115021288 -1.69840109
v 2.03021836 0.115021318 -1.62029231
v 2.05413365 0.00270726904 -1.63767517
v 2.05413365 0.00270726904 -1.68101823
v 2.06227827 0.00270726904 -1.68916273
v 2.10562134 0.00270726904 -1.68916273

# 24 UV coordinates
vt 0.290038973 0.316917956 0
vt 0.295914292 0.316917956 0
vt 0.296470076 0.316917956 0
vt 0.289761454 0.316917956 0
vt 0.289984107 0.316917956 0
vt 0.295969218 0.316917956 0
vt 0.290028989 0.316917956 0
vt 0.295924217 0.316917956 0
vt 0.283608764 0.316917956 0
vt 0.289484054 0.316917956 0
vt 0.283052951 0.316917956 0
vt 0.283553869 0.316917956 0
vt 0.289539009 0.316917956 0
vt 0.283598781 0.316917956 0
vt 0.289493978 0.316917956 0
vt 0.296437055 0.316917956 0
vt 0.297205716 0.316917956 0
vt 0.297761619 0.316917956 0
vt 0.295881271 0.316917956 0
vt 0.28231135 0.316917956 0
vt 0.283079982 0.316917956 0
vt 0.283635765 0.316917956 0
vt 0.281755507 0.316917956 0
vt 0.0238534529 0.120973706 0

# 87 vertex normals
vn -0.61749053 -0.601890743 -0.506392181
vn -0.34160465 -0.921112597 -0.186702549
vn 0.341598302 -0.921095431 -0.186799064
vn 0.61749053 -0.601890743 -0.506392181
vn 0.875582576 0.278094471 -0.394992143
vn 0.875582457 0.394992113 0.278094441
vn 0.875582576 -0.278094471 0.394992143
vn 0.875582457 -0.394992113 -0.278094441
vn 0.341614366 0.486320466 0.804233849
vn -0.341614366 0.486320466 0.804233849
vn -0.34160465 -0.186702549 0.921112597
vn 0.34160465 -0.186702549 0.921112597
vn -0.341614366 0.804233849 -0.486320466
vn -0.341598302 0.921095431 0.186799064
vn 0.341598302 0.921095431 0.186799064
vn 0.341614366 0.804233849 -0.486320466
vn -0.341614366 -0.486320466 -0.804233849
vn -0 -0.95277065 -0.303690672
vn -0 -0.607112288 -0.794616044
vn 0 -0.794616044 0.607112288
vn -0.983220577 -0.138602912 -0.118602484
vn -0.980683625 0.149697497 0.125897899
vn 0 -0.303690672 0.95277065
vn 0 0.794616044 -0.607112288
vn -0.341598302 0.186799064 -0.921095431
vn 0 0.303690672 -0.95277065
vn 0 0.95277065 0.303690672
vn 0 0.607112288 0.794616044
vn 0.341614366 -0.486320466 -0.804233849
vn 0.983220577 -0.138602912 -0.118602484
vn 0.980683625 0.149697497 0.125897899
vn 0.341598302 0.186799064 -0.921095431
vn -0.864536107 -0.334013939 -0.37551567
vn 0.864536107 -0.334013939 -0.37551567
vn 0.341590345 -0.341590345 0.875575244
vn 0.341590345 0.341590345 0.875575244
vn -0.341590345 0.341590345 0.875575244
vn -0.341590345 -0.341590345 0.875575244
vn 0.875575244 -0.341590345 -0.341590345
vn 0.875575244 0.341590345 -0.341590345
vn 0.875575244 0.341590345 0.341590345
vn 0.875575244 -0.341590345 0.341590345
vn 0.341590345 0.875575244 -0.341590345
vn -0.341590345 0.875575244 -0.341590345
vn -0.341590345 0.875575244 0.341590345
vn 0.341590345 0.875575244 0.341590345
vn 0.341590345 -0.341590345 -0.875575244
vn -0.341590345 -0.341590345 -0.875575244
vn -0.341590345 -0.875575244 0.341590345
vn 0 -0.462190062 0.886780977
vn 0 -0.886780977 0.462190062
vn 0 0.886780977 0.462190062
vn 0 0.462190062 0.886780977
vn -0.341590345 -0.875575244 -0.341590345
vn -0 -0.886780977 -0.462190062
vn -0 -0.462190062 -0.886780977
vn 0 0.462190062 -0.886780977
vn 0 0.886780977 -0.462190062
vn 0.341590345 -0.875575244 0.341590345
vn 0.341590345 -0.875575244 -0.341590345
vn 0.34160465 -0.921112597 -0.186702549
vn -0.875582457 -0.394992113 -0.278094441
vn -0.875582576 -0.278094471 0.394992143
vn -0.875582457 0.394992113 0.278094441
vn -0.875582576 0.278094471 -0.394992143
vn -0.875575244 -0.341590345 0.341590345
vn -0.875575244 0.341590345 0.341590345
vn -0.875575244 0.341590345 -0.341590345
vn -0.875575244 -0.341590345 -0.341590345
vn -0.341590345 0.341590345 -0.875575244
vn 0.341590345 0.341590345 -0.875575244
vn 0.254808575 -0.721324325 0.64402169
vn 0.333996087 0.533893764 0.776790917
vn -0.333996087 0.533893764 0.776790917
vn -0.254808575 -0.721324325 0.64402169
vn 0.64402169 -0.721324325 -0.254808575
vn 0.776790917 0.533893764 -0.333996087
vn 0.776790917 0.533893764 0.333996087
vn 0.64402169 -0.721324325 0.254808575
vn 0.333996087 0.533893764 -0.776790917
vn -0.333996087 0.533893764 -0.776790917
vn -0.776790917 0.533893764 -0.333996087
vn -0.776790917 0.533893764 0.333996087
vn -0.64402169 -0.721324325 0.254808575
vn -0.64402169 -0.721324325 -0.254808575
vn -0.254808575 -0.721324325 -0.64402169
vn 0.254808575 -0.721324325 -0.64402169

# Mesh 'Cube.047' with 408 faces
g Cube.047
usemtl Material
f  1/1/1 2/1/2 3/2/3
f  1/1/1 3/2/3 4/2/4
f  5/3/5 6/3/6 7/3/7
f  5/3/5 7/3/7 8/3/8
f  9/2/9 10/1/10 11/1/11
f  9/2/9 11/1/11 12/2/12
f  13/1/13 14/1/14 15/2/15
f  13/1/13 15/2/15 16/2/16
f  17/1/17 2/1/2 18/4/18
f  17/1/17 18/4/18 19/4/19
f  20/4/20 21/5/21 22/1/22
f  22/1/22 11/1/11 23/4/23
f  22/1/22 23/4/23 20/4/20
f  24/4/24 13/1/13 25/1/25
f  24/4/24 25/1/25 26/4/26
f  10/1/10 14/1/14 27/4/27
f  10/1/10 27/4/27 28/4/28
f  29/2/29 8/3/8 3/2/3
f  30/6/30 7/3/7 12/2/12
f  30/6/30 12/2/12 31/2/31
f  32/2/32 16/2/16 5/3/5
f  9/2/9 6/3/6 15/2/15
f  26/4/26 25/1/25 17/1/17
f  26/4/26 17/1/17 19/4/19
f  20/4/20 18/4/18 2/1/2
f  2/1/2 1/1/1 33/7/33
f  33/7/33 21/5/21 20/4/20
f  2/1/2 33/7/33 20/4/20
f  23/4/23 11/1/11 10/1/10
f  23/4/23 10/1/10 28/4/28
f  27/4/27 14/1/14 13/1/13
f  27/4/27 13/1/13 24/4/24
f  32/2/32 25/1/25 13/1/13
f  32/2/32 13/1/13 16/2/16
f  10/1/10 9/2/9 15/2/15
f  10/1/10 15/2/15 14/1/14
f  6/3/6 5/3/5 16/2/16
f  6/3/6 16/2/16 15/2/15
f  29/2/29 32/2/32 5/3/5
f  29/2/29 5/3/5 8/3/8
f  9/2/9 12/2/12 7/3/7
f  9/2/9 7/3/7 6/3/6
f  34/8/34 4/2/4 3/2/3
f  3/2/3 8/3/8 7/3/7
f  7/3/7 30/6/30 34/8/34
f  34/8/34 3/2/3 7/3/7
f  17/1/17 29/2/29 3/2/3
f  17/1/17 3/2/3 2/1/2
f  31/2/31 12/2/12 11/1/11
f  31/2/31 11/1/11 22/1/22
f  25/1/25 32/2/32 29/2/29
f  25/1/25 29/2/29 17/1/17
f  35/2/35 36/2/36 37/1/37
f  35/2/35 37/1/37 38/1/38
f  39/3/39 40/3/40 41/3/41
f  39/3/39 41/3/41 42/3/42
f  43/2/43 44/1/44 45/1/45
f  43/2/43 45/1/45 46/2/46
f  47/2/47 48/1/48 1/1/1
f  47/2/47 1/1/1 4/2/4
f  49/1/49 38/1/38 50/4/50
f  49/1/49 50/4/50 51/4/51
f  37/1/37 45/1/45 52/4/52
f  37/1/37 52/4/52 53/4/53
f  48/1/48 54/1/54 55/4/55
f  48/1/48 55/4/55 56/4/56
f  57/4/57 58/4/58 44/1/44
f  44/1/44 22/1/22 21/5/21
f  21/5/21 33/7/33 57/4/57
f  44/1/44 21/5/21 57/4/57
f  59/2/59 42/3/42 35/2/35
f  46/2/46 36/2/36 41/3/41
f  60/2/60 47/2/47 39/3/39
f  30/6/30 31/2/31 43/2/43
f  40/3/40 34/8/34 30/6/30
f  43/2/43 40/3/40 30/6/30
f  54/1/54 49/1/49 51/4/51
f  54/1/54 51/4/51 55/4/55
f  38/1/38 37/1/37 53/4/53
f  38/1/38 53/4/53 50/4/50
f  52/4/52 45/1/45 44/1/44
f  52/4/52 44/1/44 58/4/58
f  57/4/57 33/7/33 1/1/1
f  1/1/1 48/1/48 56/4/56
f  1/1/1 56/4/56 57/4/57
f  60/2/60 54/1/54 48/1/48
f  60/2/60 48/1/48 47/2/47
f  22/1/22 44/1/44 43/2/43
f  22/1/22 43/2/43 31/2/31
f  4/2/4 34/8/34 40/3/40
f  40/3/40 39/3/39 47/2/47
f  40/3/40 47/2/47 4/2/4
f  59/2/59 60/2/60 39/3/39
f  59/2/59 39/3/39 42/3/42
f  43/2/43 46/2/46 41/3/41
f  43/2/43 41/3/41 40/3/40
f  36/2/36 35/2/35 42/3/42
f  36/2/36 42/3/42 41/3/41
f  49/1/49 59/2/59 35/2/35
f  49/1/49 35/2/35 38/1/38
f  46/2/46 45/1/45 37/1/37
f  46/2/46 37/1/37 36/2/36
f  54/1/54 60/2/60 59/2/59
f  54/1/54 59/2/59 49/1/49
f  61/9/1 62/9/2 63/10/61
f  61/9/1 63/10/61 64/10/4
f  65/10/9 66/9/10 67/9/11
f  65/10/9 67/9/11 68/10/12
f  69/11/62 70/11/63 71/11/64
f  69/11/62 71/11/64 72/11/65
f  73/9/13 74/9/14 75/10/15
f  73/9/13 75/10/15 76/10/16
f  77/9/17 62/9/2 69/11/62
f  78/9/22 67/9/11 70/11/63
f  78/9/22 70/11/63 79/12/21
f  80/9/25 72/11/65 73/9/13
f  66/9/10 74/9/14 71/11/64
f  81/10/29 19/4/19 18/4/18
f  81/10/29 18/4/18 63/10/61
f  20/4/20 23/4/23 68/10/12
f  68/10/12 82/10/31 83/13/30
f  68/10/12 83/13/30 20/4/20
f  26/4/26 84/10/32 76/10/16
f  26/4/26 76/10/16 24/4/24
f  75/10/15 65/10/9 28/4/28
f  75/10/15 28/4/28 27/4/27
f  80/9/25 77/9/17 69/11/62
f  80/9/25 69/11/62 72/11/65
f  85/14/33 79/12/21 70/11/63
f  70/11/63 69/11/62 62/9/2
f  62/9/2 61/9/1 85/14/33
f  85/14/33 70/11/63 62/9/2
f  67/9/11 66/9/10 71/11/64
f  67/9/11 71/11/64 70/11/63
f  74/9/14 73/9/13 72/11/65
f  74/9/14 72/11/65 71/11/64
f  84/10/32 80/9/25 73/9/13
f  84/10/32 73/9/13 76/10/16
f  66/9/10 65/10/9 75/10/15
f  66/9/10 75/10/15 74/9/14
f  76/10/16 75/10/15 27/4/27
f  76/10/16 27/4/27 24/4/24
f  81/10/29 84/10/32 26/4/26
f  81/10/29 26/4/26 19/4/19
f  65/10/9 68/10/12 23/4/23
f  65/10/9 23/4/23 28/4/28
f  18/4/18 20/4/20 83/13/30
f  86/15/34 64/10/4 63/10/61
f  18/4/18 83/13/30 86/15/34
f  86/15/34 63/10/61 18/4/18
f  77/9/17 81/10/29 63/10/61
f  77/9/17 63/10/61 62/9/2
f  82/10/31 68/10/12 67/9/11
f  82/10/31 67/9/11 78/9/22
f  80/9/25 84/10/32 81/10/29
f  80/9/25 81/10/29 77/9/17
f  87/10/35 88/10/36 89/9/37
f  87/10/35 89/9/37 90/9/38
f  91/10/43 92/9/44 93/9/45
f  91/10/43 93/9/45 94/10/46
f  95/11/66 96/11/67 97/11/68
f  95/11/66 97/11/68 98/11/69
f  99/10/47 100/9/48 61/9/1
f  99/10/47 61/9/1 64/10/4
f  101/9/49 90/9/38 95/11/66
f  89/9/37 93/9/45 96/11/67
f  102/9/54 98/11/69 100/9/48
f  79/12/21 85/14/33 97/11/68
f  97/11/68 92/9/44 78/9/22
f  79/12/21 97/11/68 78/9/22
f  87/10/35 103/10/59 51/4/51
f  87/10/35 51/4/51 50/4/50
f  94/10/46 88/10/36 53/4/53
f  94/10/46 53/4/53 52/4/52
f  99/10/47 56/4/56 55/4/55
f  99/10/47 55/4/55 104/10/60
f  83/13/30 82/10/31 91/10/43
f  91/10/43 58/4/58 57/4/57
f  57/4/57 86/15/34 83/13/30
f  83/13/30 91/10/43 57/4/57
f  102/9/54 101/9/49 95/11/66
f  102/9/54 95/11/66 98/11/69
f  90/9/38 89/9/37 96/11/67
f  90/9/38 96/11/67 95/11/66
f  93/9/45 92/9/44 97/11/68
f  93/9/45 97/11/68 96/11/67
f  98/11/69 97/11/68 85/14/33
f  85/14/33 61/9/1 100/9/48
f  85/14/33 100/9/48 98/11/69
f  104/10/60 102/9/54 100/9/48
f  104/10/60 100/9/48 99/10/47
f  78/9/22 92/9/44 91/10/43
f  78/9/22 91/10/43 82/10/31
f  57/4/57 56/4/56 99/10/47
f  99/10/47 64/10/4 86/15/34
f  99/10/47 86/15/34 57/4/57
f  51/4/51 103/10/59 104/10/60
f  51/4/51 104/10/60 55/4/55
f  58/4/58 91/10/43 94/10/46
f  58/4/58 94/10/46 52/4/52
f  53/4/53 88/10/36 87/10/35
f  53/4/53 87/10/35 50/4/50
f  101/9/49 103/10/59 87/10/35
f  101/9/49 87/10/35 90/9/38
f  94/10/46 93/9/45 89/9/37
f  94/10/46 89/9/37 88/10/36
f  102/9/54 104/10/60 103/10/59
f  102/9/54 103/10/59 101/9/49
f  105/16/54 106/17/60 107/17/59
f  105/16/54 107/17/59 108/16/49
f  109/16/70 110/17/71 111/17/47
f  109/16/70 111/17/47 112/16/48
f  113/18/40 114/18/41 115/18/42
f  113/18/40 115/18/42 116/18/39
f  117/16/38 118/17/35 119/17/36
f  117/16/38 119/17/36 120/16/37
f  121/16/45 122/17/46 123/17/43
f  121/16/45 123/17/43 124/16/44
f  125/19/66 108/16/49 117/16/38
f  107/17/59 115/18/42 118/17/35
f  126/19/67 120/16/37 121/16/45
f  114/18/41 122/17/46 119/17/36
f  127/19/69 112/16/48 105/16/54
f  116/18/39 106/17/60 111/17/47
f  128/19/68 124/16/44 109/16/70
f  113/18/40 110/17/71 123/17/43
f  126/19/67 125/19/66 117/16/38
f  126/19/67 117/16/38 120/16/37
f  108/16/49 107/17/59 118/17/35
f  108/16/49 118/17/35 117/16/38
f  115/18/42 114/18/41 119/17/36
f  115/18/42 119/17/36 118/17/35
f  122/17/46 121/16/45 120/16/37
f  122/17/46 120/16/37 119/17/36
f  128/19/68 126/19/67 121/16/45
f  128/19/68 121/16/45 124/16/44
f  114/18/41 113/18/40 123/17/43
f  114/18/41 123/17/43 122/17/46
f  110/17/71 109/16/70 124/16/44
f  110/17/71 124/16/44 123/17/43
f  127/19/69 128/19/68 109/16/70
f  127/19/69 109/16/70 112/16/48
f  113/18/40 116/18/39 111/17/47
f  113/18/40 111/17/47 110/17/71
f  106/17/60 105/16/54 112/16/48
f  106/17/60 112/16/48 111/17/47
f  125/19/66 127/19/69 105/16/54
f  125/19/66 105/16/54 108/16/49
f  116/18/39 115/18/42 107/17/59
f  116/18/39 107/17/59 106/17/60
f  126/19/67 128/19/68 127/19/69
f  126/19/67 127/19/69 125/19/66
f  129/20/54 130/21/60 131/21/59
f  129/20/54 131/21/59 132/20/49
f  133/20/70 134/21/71 135/21/47
f  133/20/70 135/21/47 136/20/48
f  137/22/40 138/22/41 139/22/42
f  137/22/40 139/22/42 140/22/39
f  141/20/38 142/21/35 143/21/36
f  141/20/38 143/21/36 144/20/37
f  145/20/45 146/21/46 147/21/43
f  145/20/45 147/21/43 148/20/44
f  149/23/66 132/20/49 141/20/38
f  131/21/59 139/22/42 142/21/35
f  150/23/67 144/20/37 145/20/45
f  138/22/41 146/21/46 143/21/36
f  151/23/69 136/20/48 129/20/54
f  140/22/39 130/21/60 135/21/47
f  152/23/68 148/20/44 133/20/70
f  137/22/40 134/21/71 147/21/43
f  150/23/67 149/23/66 141/20/38
f  150/23/67 141/20/38 144/20/37
f  132/20/49 131/21/59 142/21/35
f  132/20/49 142/21/35 141/20/38
f  139/22/42 138/22/41 143/21/36
f  139/22/42 143/21/36 142/21/35
f  146/21/46 145/20/45 144/20/37
f  146/21/46 144/20/37 143/21/36
f  152/23/68 150/23/67 145/20/45
f  152/23/68 145/20/45 148/20/44
f  138/22/41 137/22/40 147/21/43
f  138/22/41 147/21/43 146/21/46
f  134/21/71 133/20/70 148/20/44
f  134/21/71 148/20/44 147/21/43
f  151/23/69 152/23/68 133/20/70
f  151/23/69 133/20/70 136/20/48
f  137/22/40 140/22/39 135/21/47
f  137/22/40 135/21/47 134/21/71
f  130/21/60 129/20/54 136/20/48
f  130/21/60 136/20/48 135/21/47
f  149/23/66 151/23/69 129/20/54
f  149/23/66 129/20/54 132/20/49
f  140/22/39 139/22/42 131/21/59
f  140/22/39 131/21/59 130/21/60
f  150/23/67 152/23/68 151/23/69
f  150/23/67 151/23/69 149/23/66
f  153/24/72 154/24/73 155/24/74
f  153/24/72 155/24/74 156/24/75
f  157/24/76 158/24/77 159/24/78
f  157/24/76 159/24/78 160/24/79
f  159/24/78 158/24/77 161/24/80
f  161/24/80 162/24/81 163/24/82
f  163/24/82 164/24/83 155/24/74
f  155/24/74 154/24/73 159/24/78
f  159/24/78 161/24/80 163/24/82
f  163/24/82 155/24/74 159/24/78
f  165/24/84 164/24/83 163/24/82
f  165/24/84 163/24/82 166/24/85
f  167/24/86 162/24/81 161/24/80
f  167/24/86 161/24/80 168/24/87
f  156/24/75 155/24/74 164/24/83
f  156/24/75 164/24/83 165/24/84
f  162/24/81 167/24/86 166/24/85
f  162/24/81 166/24/85 163/24/82
f  158/24/77 157/24/76 168/24/87
f  158/24/77 168/24/87 161/24/80
f  154/24/73 153/24/72 160/24/79
f  154/24/73 160/24/79 159/24/78
f  165/24/84 166/24/85 167/24/86
f  167/24/86 168/24/87 157/24/76
f  157/24/76 160/24/79 153/24/72
f  153/24/72 156/24/75 165/24/84
f  165/24/84 167/24/86 157/24/76
f  157/24/76 153/24/72 165/24/84
f  169/24/72 170/24/73 171/24/74
f  169/24/72 171/24/74 172/24/75
f  173/24/76 174/24/77 175/24/78
f  173/24/76 175/24/78 176/24/79
f  175/24/78 174/24/77 177/24/80
f  177/24/80 178/24/81 179/24/82
f  179/24/82 180/24/83 171/24/74
f  171/24/74 170/24/73 175/24/78
f  175/24/78 177/24/80 179/24/82
f  179/24/82 171/24/74 175/24/78
f  181/24/84 180/24/83 179/24/82
f  181/24/84 179/24/82 182/24/85
f  183/24/86 178/24/81 177/24/80
f  183/24/86 177/24/80 184/24/87
f  172/24/75 171/24/74 180/24/83
f  172/24/75 180/24/83 181/24/84
f  178/24/81 183/24/86 182/24/85
f  178/24/81 182/24/85 179/24/82
f  174/24/77 173/24/76 184/24/87
f  174/24/77 184/24/87 177/24/80
f  170/24/73 169/24/72 176/24/79
f  170/24/73 176/24/79 175/24/78
f  181/24/84 182/24/85 183/24/86
f  183/24/86 184/24/87 173/24/76
f  173/24/76 176/24/79 169/24/72
f  169/24/72 172/24/75 181/24/84
f  181/24/84 183/24/86 173/24/76
f  173/24/76 169/24/72 181/24/84
f  185/24/72 186/24/73 187/24/74
f  185/24/72 187/24/74 188/24/75
f  189/24/76 190/24/77 191/24/78
f  189/24/76 191/24/78 192/24/79
f  191/24/78 190/24/77 193/24/80
f  193/24/80 194/24/81 195/24/82
f  195/24/82 196/24/83 187/24/74
f  187/24/74 186/24/73 191/24/78
f  191/24/78 193/24/80 195/24/82
f  195/24/82 187/24/74 191/24/78
f  197/24/84 196/24/83 195/24/82
f  197/24/84 195/24/82 198/24/85
f  199/24/86 194/24/81 193/24/80
f  199/24/86 193/24/80 200/24/87
f  188/24/75 187/24/74 196/24/83
f  188/24/75 196/24/83 197/24/84
f  194/24/81 199/24/86 198/24/85
f  194/24/81 198/24/85 195/24/82
f  190/24/77 189/24/76 200/24/87
f  190/24/77 200/24/87 193/24/80
f  186/24/73 185/24/72 192/24/79
f  186/24/73 192/24/79 191/24/78
f  197/24/84 198/24/85 199/24/86
f  199/24/86 200/24/87 189/24/76
f  189/24/76 192/24/79 185/24/72
f  185/24/72 188/24/75 197/24/84
f  197/24/84 199/24/86 189/24/76
f  189/24/76 185/24/72 197/24/84
f  201/24/72 202/24/73 203/24/74
f  201/24/72 203/24/74 204/24/75
f  205/24/76 206/24/77 207/24/78
f  205/24/76 207/24/78 208/24/79
f  207/24/78 206/24/77 209/24/80
f  209/24/80 210/24/81 211/24/82
f  211/24/82 212/24/83 203/24/74
f  203/24/74 202/24/73 207/24/78
f  207/24/78 209/24/80 211/24/82
f  211/24/82 203/24/74 207/24/78
f  213/24/84 212/24/83 211/24/82
f  213/24/84 211/24/82 214/24/85
f  215/24/86 210/24/81 209/24/80
f  215/24/86 209/24/80 216/24/87
f  204/24/75 203/24/74 212/24/83
f  204/24/75 212/24/83 213/24/84
f  210/24/81 215/24/86 214/24/85
f  210/24/81 214/24/85 211/24/82
f  206/24/77 205/24/76 216/24/87
f  206/24/77 216/24/87 209/24/80
f  202/24/73 201/24/72 208/24/79
f  202/24/73 208/24/79 207/24/78
f  213/24/84 214/24/85 215/24/86
f  215/24/86 216/24/87 205/24/76
f  205/24/76 208/24/79 201/24/72
f  201/24/72 204/24/75 213/24/84
f  213/24/84 215/24/86 205/24/76
f  205/24/76 201/24/72 213/24/84

