# File produced by Open Asset Import Library (http://www.assimp.sf.net)
# (assimp v6.0.0)

mtllib vase.mtl

# 304 vertex positions
v -3.76970673 0.943055332 -0.0498714373
v -3.75100064 1.01353407 -0.0756180361
v -3.71704578 1.01353407 -0.0288835224
v -3.74731278 0.943055332 -0.0190491956
v -3.84217405 0.943055332 -0.0498714373
v -3.86087966 1.01353407 -0.0756180361
v -3.80594015 1.01353407 -0.0934690386
v -3.80594039 0.943055332 -0.0616444983
v -3.74731278 0.943055332 0.0190491993
v -3.71704578 1.01353407 0.0288835224
v -3.75100064 1.01353407 0.0756180435
v -3.76970673 0.943055332 0.049871441
v -3.76970673 0.943055332 0.049871441
v -3.75100064 1.01353407 0.0756180435
v -3.80594015 1.01353407 0.0934690386
v -3.80594039 0.943055332 0.0616444908
v -3.80594039 0.943055332 0.0616444908
v -3.80594015 1.01353407 0.0934690386
v -3.86087966 1.01353407 0.0756180435
v -3.84217405 0.943055332 0.049871441
v -3.84217405 0.943055332 0.049871441
v -3.86087966 1.01353407 0.0756180435
v -3.89483452 1.01353407 0.0288835242
v -3.86456776 0.943055332 0.0190491993
v -3.86456776 0.943055332 0.0190491993
v -3.89483452 1.01353407 0.0288835242
v -3.89483452 1.01353407 -0.0288835224
v -3.86456776 0.943055332 -0.0190491956
v -3.86456776 0.943055332 -0.0190491956
v -3.89483452 1.01353407 -0.0288835224
v -3.86087966 1.01353407 -0.0756180361
v -3.84217405 0.943055332 -0.0498714373
v -3.74660182 1.01336753 -0.0192801822
v -3.76926708 1.01336753 -0.0504762568
v -3.78467989 0.943258345 -0.0292623509
v -3.77154016 0.943258345 -0.0111772045
v -3.74731278 0.943055332 -0.0190491956
v -3.71704578 1.01353407 -0.0288835224
v -3.71704578 1.01353407 0.0288835224
v -3.74731278 0.943055332 0.0190491993
v -3.86262178 0.711928427 -0.0780157745
v -3.80594015 0.711928427 -0.0964328051
v -3.74925852 0.711928427 -0.0780157745
v -3.71422696 0.711928427 -0.0297993775
v -3.71422696 0.711928427 0.0297993775
v -3.74925852 0.711928427 0.0780157819
v -3.80594015 0.711928427 0.0964328051
v -3.86262178 0.711928427 0.0780157819
v -3.89765334 0.711928427 0.0297993775
v -3.89765334 0.711928427 -0.0297993775
v -3.87801838 0.871560454 -0.099207297
v -3.84217405 0.943055332 -0.0498714373
v -3.80594039 0.943055332 -0.0616444983
v -3.80594015 0.871560454 -0.122626975
v -3.92256546 0.871560454 -0.0378938243
v -3.86456776 0.943055332 -0.0190491956
v -3.92256546 0.871560454 0.0378938206
v -3.86456776 0.943055332 0.0190491993
v -3.87801838 0.871560454 0.0992073193
v -3.84217405 0.943055332 0.049871441
v -3.80594015 0.871560454 0.122626975
v -3.80594039 0.943055332 0.0616444908
v -3.73386192 0.871560454 0.0992073193
v -3.76970673 0.943055332 0.049871441
v -3.80594015 0.871560454 0.122626975
v -3.68931484 0.871560454 0.0378938168
v -3.74731278 0.943055332 0.0190491993
v -3.73386192 0.871560454 0.0992073193
v -3.68931484 0.871560454 -0.0378938243
v -3.74731278 0.943055332 -0.0190491956
v -3.73386192 0.871560454 -0.099207297
v -3.76970673 0.943055332 -0.0498714373
v -3.74925852 0.711928427 -0.0780157745
v -3.73190832 0.858996511 -0.101896055
v -3.68615413 0.858996511 -0.0389208384
v -3.71422696 0.711928427 -0.0297993775
v -3.80594039 0.943055332 -0.0616444983
v -3.80594015 1.01353407 -0.0934690386
v -3.75100064 1.01353407 -0.0756180361
v -3.76970673 0.943055332 -0.0498714373
v -3.89765334 0.711928427 -0.0297993775
v -3.92572618 0.858996511 -0.0389208384
v -3.87997174 0.858996511 -0.101896055
v -3.86262178 0.711928427 -0.0780157745
v -3.89765334 0.711928427 0.0297993775
v -3.92572618 0.858996511 0.0389208347
v -3.92572618 0.858996511 -0.0389208384
v -3.89765334 0.711928427 -0.0297993775
v -3.86262178 0.711928427 0.0780157819
v -3.87997174 0.858996511 0.101896077
v -3.92572618 0.858996511 0.0389208347
v -3.89765334 0.711928427 0.0297993775
v -3.80594015 0.711928427 0.0964328051
v -3.80594015 0.858996511 0.125950471
v -3.87997174 0.858996511 0.101896077
v -3.86262178 0.711928427 0.0780157819
v -3.74925852 0.711928427 0.0780157819
v -3.73190832 0.858996511 0.101896077
v -3.80594015 0.858996511 0.125950471
v -3.80594015 0.711928427 0.0964328051
v -3.71422696 0.711928427 0.0297993775
v -3.68615413 0.858996511 0.0389208309
v -3.73190832 0.858996511 0.101896077
v -3.74925852 0.711928427 0.0780157819
v -3.71422696 0.711928427 -0.0297993775
v -3.68615413 0.858996511 -0.0389208384
v -3.68615413 0.858996511 0.0389208309
v -3.71422696 0.711928427 0.0297993775
v -3.86262178 0.711928427 -0.0780157745
v -3.87997174 0.858996511 -0.101896055
v -3.80594015 0.858996511 -0.125950471
v -3.80594015 0.711928427 -0.0964328051
v -3.80594015 1.01336753 -0.0623920895
v -3.84261322 1.01336753 -0.0504762568
v -3.82720041 0.943258345 -0.0292623509
v -3.80594015 0.943258345 -0.0361702591
v -3.74660182 1.01336753 0.0192801822
v -3.74660182 1.01336753 -0.0192801822
v -3.77154016 0.943258345 -0.0111772045
v -3.77154016 0.943258345 0.0111772055
v -3.76926708 1.01336753 0.0504762605
v -3.74660182 1.01336753 0.0192801822
v -3.77154016 0.943258345 0.0111772055
v -3.78467989 0.943258345 0.0292623565
v -3.80594015 1.01336753 0.0623920895
v -3.76926708 1.01336753 0.0504762605
v -3.78467989 0.943258345 0.0292623565
v -3.80594015 0.943258345 0.0361702554
v -3.84261322 1.01336753 0.0504762605
v -3.80594015 1.01336753 0.0623920895
v -3.80594015 0.943258345 0.0361702554
v -3.82720041 0.943258345 0.0292623565
v -3.86527872 1.01336753 0.0192801822
v -3.84261322 1.01336753 0.0504762605
v -3.82720041 0.943258345 0.0292623565
v -3.84034014 0.943258345 0.0111772055
v -3.86527872 1.01336753 -0.0192801785
v -3.86527872 1.01336753 0.0192801822
v -3.84034014 0.943258345 0.0111772055
v -3.84034014 0.943258345 -0.0111772027
v -3.84261322 1.01336753 -0.0504762568
v -3.86527872 1.01336753 -0.0192801785
v -3.84034014 0.943258345 -0.0111772027
v -3.82720041 0.943258345 -0.0292623509
v -3.80594015 0.711928427 -0.0964328051
v -3.80594015 0.858996511 -0.125950471
v -3.73190832 0.858996511 -0.101896055
v -3.74925852 0.711928427 -0.0780157745
v -3.76926708 1.01336753 -0.0504762568
v -3.80594015 1.01336753 -0.0623920895
v -3.80594015 0.943258345 -0.0361702591
v -3.78467989 0.943258345 -0.0292623509
v -3.84034014 0.943258345 -0.0111772027
v -3.84034014 0.943258345 0.0111772055
v -3.9012599 0.865673065 0.0309711266
v -3.9012599 0.865673065 -0.0309711266
v -3.87481594 1.02009761 0.0223790091
v -3.87481594 1.02009761 -0.0223790053
v -3.89051008 1.02009761 -0.027478395
v -3.89051008 1.02009761 0.0274783969
v -3.76337266 1.02009761 0.0585890859
v -3.80594015 1.02009761 0.072420083
v -3.80594015 1.02009761 0.0889219791
v -3.75367332 1.02009761 0.0719393864
v -3.76337266 1.02009761 -0.0585890822
v -3.7370646 1.02009761 -0.0223789867
v -3.72137022 1.02009761 -0.0274784118
v -3.75367332 1.02009761 -0.071939379
v -3.84850764 1.02009761 -0.0585890822
v -3.85820699 1.02009761 -0.071939379
v -3.84850764 1.02009761 0.0585890859
v -3.85820699 1.02009761 0.0719393864
v -3.7370646 1.02009761 0.0223789867
v -3.72137022 1.02009761 0.0274784118
v -3.84850764 1.02009761 -0.0585890822
v -3.80594015 1.02009761 -0.072420083
v -3.80594015 1.02009761 -0.0889219791
v -3.84850764 1.02009761 0.0585890859
v -3.85820699 1.02009761 0.0719393864
v -3.76337266 1.02009761 0.0585890859
v -3.80594015 0.865673065 0.100224853
v -3.74702954 0.865673065 0.0810836107
v -3.76189494 0.734375 0.0606230535
v -3.80594015 0.734375 0.0749342218
v -3.80594015 0.943258345 0.0361702554
v -3.78467989 0.943258345 0.0292623565
v -3.74702954 0.865673065 0.0810836107
v -3.80594015 0.865673065 0.100224853
v -3.77154016 0.943258345 -0.0111772045
v -3.78467989 0.943258345 -0.0292623509
v -3.74702954 0.865673065 -0.0810836032
v -3.71062064 0.865673065 -0.0309711285
v -3.82720041 0.943258345 -0.0292623509
v -3.86485076 0.865673065 -0.0810836032
v -3.82720041 0.943258345 0.0292623565
v -3.86485076 0.865673065 0.0810836107
v -3.77154016 0.943258345 0.0111772055
v -3.71062064 0.865673065 0.0309711266
v -3.80594015 0.943258345 -0.0361702591
v -3.80594015 0.865673065 -0.100224853
v -3.7346735 0.734375 -0.0231559053
v -3.76189494 0.734375 -0.0606230535
v -3.80594015 0.734375 -0.0749342218
v -3.84998536 0.734375 -0.0606230535
v -3.87720704 0.734375 -0.0231559034
v -3.87720704 0.734375 0.0231559034
v -3.84998536 0.734375 0.0606230535
v -3.80594015 0.734375 0.0749342218
v -3.76189494 0.734375 0.0606230535
v -3.7346735 0.734375 0.0231559034
v -3.71062064 0.865673065 -0.0309711285
v -3.74702954 0.865673065 -0.0810836032
v -3.76189494 0.734375 -0.0606230535
v -3.7346735 0.734375 -0.0231559053
v -3.86485076 0.865673065 -0.0810836032
v -3.9012599 0.865673065 -0.0309711266
v -3.87720704 0.734375 -0.0231559034
v -3.84998536 0.734375 -0.0606230535
v -3.86485076 0.865673065 0.0810836107
v -3.80594015 0.865673065 0.100224853
v -3.80594015 0.734375 0.0749342218
v -3.84998536 0.734375 0.0606230535
v -3.71062064 0.865673065 0.0309711266
v -3.71062064 0.865673065 -0.0309711285
v -3.7346735 0.734375 -0.0231559053
v -3.7346735 0.734375 0.0231559034
v -3.80594015 0.865673065 -0.100224853
v -3.86485076 0.865673065 -0.0810836032
v -3.84998536 0.734375 -0.0606230535
v -3.80594015 0.734375 -0.0749342218
v -3.9012599 0.865673065 0.0309711266
v -3.86485076 0.865673065 0.0810836107
v -3.84998536 0.734375 0.0606230535
v -3.87720704 0.734375 0.0231559034
v -3.74702954 0.865673065 0.0810836107
v -3.71062064 0.865673065 0.0309711266
v -3.7346735 0.734375 0.0231559034
v -3.76189494 0.734375 0.0606230535
v -3.74702954 0.865673065 -0.0810836032
v -3.80594015 0.865673065 -0.100224853
v -3.80594015 0.734375 -0.0749342218
v -3.76189494 0.734375 -0.0606230535
v -3.9012599 0.865673065 -0.0309711266
v -3.9012599 0.865673065 0.0309711266
v -3.87720704 0.734375 0.0231559034
v -3.87720704 0.734375 -0.0231559034
v -3.75100064 1.01353407 -0.0756180361
v -3.80594015 1.01353407 -0.0934690386
v -3.80594015 1.02009761 -0.0889219791
v -3.75367332 1.02009761 -0.071939379
v -3.71704578 1.01353407 -0.0288835224
v -3.75100064 1.01353407 -0.0756180361
v -3.75367332 1.02009761 -0.071939379
v -3.72137022 1.02009761 -0.0274784118
v -3.71704578 1.01353407 0.0288835224
v -3.72137022 1.02009761 0.0274784118
v -3.75100064 1.01353407 0.0756180435
v -3.71704578 1.01353407 0.0288835224
v -3.75367332 1.02009761 0.0719393864
v -3.80594015 1.01353407 0.0934690386
v -3.80594015 1.02009761 0.0889219791
v -3.86087966 1.01353407 0.0756180435
v -3.85820699 1.02009761 0.0719393864
v -3.89483452 1.01353407 0.0288835242
v -3.86087966 1.01353407 0.0756180435
v -3.85820699 1.02009761 0.0719393864
v -3.89051008 1.02009761 0.0274783969
v -3.89483452 1.01353407 -0.0288835224
v -3.89483452 1.01353407 0.0288835242
v -3.89051008 1.02009761 -0.027478395
v -3.86087966 1.01353407 -0.0756180361
v -3.89483452 1.01353407 -0.0288835224
v -3.85820699 1.02009761 -0.071939379
v -3.86087966 1.01353407 -0.0756180361
v -3.76337266 1.02009761 -0.0585890822
v -3.80594015 1.02009761 -0.072420083
v -3.80594015 1.01336753 -0.0623920895
v -3.76926708 1.01336753 -0.0504762568
v -3.7370646 1.02009761 -0.0223789867
v -3.76337266 1.02009761 -0.0585890822
v -3.76926708 1.01336753 -0.0504762568
v -3.74660182 1.01336753 -0.0192801822
v -3.7370646 1.02009761 0.0223789867
v -3.74660182 1.01336753 -0.0192801822
v -3.74660182 1.01336753 0.0192801822
v -3.76337266 1.02009761 0.0585890859
v -3.74660182 1.01336753 0.0192801822
v -3.76926708 1.01336753 0.0504762605
v -3.80594015 1.02009761 0.072420083
v -3.76337266 1.02009761 0.0585890859
v -3.80594015 1.01336753 0.0623920895
v -3.84850764 1.02009761 0.0585890859
v -3.84261322 1.01336753 0.0504762605
v -3.87481594 1.02009761 0.0223790091
v -3.84850764 1.02009761 0.0585890859
v -3.86527872 1.01336753 0.0192801822
v -3.87481594 1.02009761 -0.0223790053
v -3.86527872 1.01336753 -0.0192801785
v -3.84850764 1.02009761 -0.0585890822
v -3.86527872 1.01336753 -0.0192801785
v -3.84261322 1.01336753 -0.0504762568
v -3.84850764 1.02009761 -0.0585890822
v -3.76337266 1.02009761 -0.0585890822
v -3.75367332 1.02009761 -0.071939379

# 7 UV coordinates
vt 0.31479159 0.819056511 0
vt 0.31479159 0.819056451 0
vt 0.31479162 0.819056511 0
vt 0.31479159 0.819056571 0
vt 0.31479156 0.819056511 0
vt 0.31479165 0.819056511 0
vt 0.31479162 0.819056451 0

# 102 vertex normals
vn 0.743377447 -0.394588053 -0.540083647
vn -0.283898652 -0.394598126 -0.873895824
vn 0.743377447 -0.394588053 0.540083647
vn 0.283898652 -0.394598126 0.873895824
vn -0.283898652 -0.394598126 0.873895824
vn -0.743377447 -0.394588053 0.540083647
vn -0.918860376 -0.394582987 -0
vn -0.743377447 -0.394588053 -0.540083647
vn -0.762224734 0.335110873 0.553817928
vn 0.918860376 -0.394582987 0
vn 0 -1 0
vn -0.525876999 0.446780443 -0.723768353
vn -0.447193503 0.648990571 -0.615491033
vn 0 0.648994267 -0.760793269
vn 0 0.446813554 -0.894627094
vn -0.850824177 0.446812689 -0.276507854
vn -0.723574698 0.648977339 -0.235091791
vn -0.850824177 0.446812689 0.276507854
vn -0.723574698 0.648977339 0.235091791
vn -0.525876999 0.446780443 0.723768353
vn -0.447193503 0.648990571 0.615491033
vn 0 0.446813554 0.894627094
vn 0 0.648994267 0.760793269
vn 0.525876999 0.446780443 0.723768353
vn 0.447193503 0.648990571 0.615491033
vn 0.850824177 0.446812689 0.276507854
vn 0.723574698 0.648977339 0.235091791
vn 0.850824177 0.446812689 -0.276507854
vn 0.723574698 0.648977339 -0.235091791
vn 0.525876999 0.446780443 -0.723768353
vn 0.447193503 0.648990571 -0.615491033
vn 0.794662237 -0.187491089 -0.577372551
vn 0.808687389 0.0275995694 -0.587590814
vn 0.283898652 -0.394598126 -0.873895824
vn -0.794662237 -0.187491089 -0.577372551
vn -0.808687389 0.0275995694 -0.587590814
vn -0.98226589 -0.187493503 -0
vn -0.999619067 0.0276005268 0
vn -0.794662237 -0.187491089 0.577372551
vn -0.808687389 0.0275995694 0.587590814
vn -0.303500295 -0.187500179 0.934200883
vn -0.30889824 0.0275998414 0.950694561
vn 0.303500295 -0.187500179 0.934200883
vn 0.30889824 0.0275998414 0.950694561
vn 0.794662237 -0.187491089 0.577372551
vn 0.808687389 0.0275995694 0.587590814
vn 0.98226589 -0.187493503 0
vn 0.999619067 0.0276005268 0
vn -0.303500295 -0.187500179 -0.934200883
vn -0.30889824 0.0275998414 -0.950694561
vn 0.291096151 0.335095555 0.896088123
vn -0.942184508 0.335094482 0
vn -0.762224734 0.335110873 -0.553817928
vn -0.291096151 0.335095555 -0.896088123
vn 0.291096151 0.335095555 -0.896088123
vn 0.762224734 0.335110873 -0.553817928
vn 0.942184508 0.335094482 0
vn 0.762224734 0.335110873 0.553817928
vn 0.303500295 -0.187500179 -0.934200883
vn 0.30889824 0.0275998414 -0.950694561
vn -0.291096151 0.335095555 0.896088123
vn 0.733381867 -0.636684239 0.23829411
vn 0.733381867 -0.636684239 -0.23829411
vn 0 1 0
vn -0.303992659 0.180195659 -0.935477495
vn 0 -0.636705697 -0.771106899
vn -0.453273028 -0.636662126 -0.623862863
vn -0.733381867 -0.636684239 0.23829411
vn -0.453273028 -0.636662126 0.623862863
vn 0.453273028 -0.636662126 0.623862863
vn 0.453273028 -0.636662126 -0.623862863
vn -0.733381867 -0.636684239 -0.23829411
vn 0 -0.636705697 0.771106899
vn -0.795766175 0.180192351 0.578175426
vn 0.795766175 0.180192351 0.578175426
vn 0.303992659 0.180195659 -0.935477495
vn -0.983629048 0.180205315 0
vn 0.303992659 0.180195659 0.935477495
vn 0.795766175 0.180192351 -0.578175426
vn -0.795766175 0.180192351 -0.578175426
vn -0.303992659 0.180195659 0.935477495
vn 0.983629048 0.180205315 0
vn 0.483190984 0.56948936 -0.664987564
vn 0 0.569495976 -0.821994126
vn 0.781777501 0.569483697 -0.253992707
vn 0.781777501 0.569483697 0.253992707
vn 0.483190984 0.56948936 0.664987564
vn 0 0.569495976 0.821994126
vn -0.483190984 0.56948936 0.664987564
vn -0.781777501 0.569483697 0.253992707
vn -0.781777501 0.569483697 -0.253992707
vn -0.483190984 0.56948936 -0.664987564
vn -0.327609777 0.830324709 0.450813442
vn 0 0.830307722 0.557305157
vn -0.530012965 0.830320358 0.172204226
vn -0.530012965 0.830320358 -0.172204226
vn -0.327609777 0.830324709 -0.450813442
vn 0 0.830307722 -0.557305157
vn 0.327609777 0.830324709 -0.450813442
vn 0.530012965 0.830320358 -0.172204226
vn 0.530012965 0.830320358 0.172204226
vn 0.327609777 0.830324709 0.450813442

# Mesh 'Cylinder' with 216 faces
g Cylinder
usemtl Material
f  1/1/1 2/1/1 3/1/1
f  1/1/1 3/1/1 4/1/1
f  5/1/2 6/1/2 7/1/2
f  5/1/2 7/1/2 8/1/2
f  9/1/3 10/1/3 11/1/3
f  9/1/3 11/1/3 12/1/3
f  13/1/4 14/1/4 15/1/4
f  13/1/4 15/1/4 16/1/4
f  17/1/5 18/1/5 19/2/5
f  17/1/5 19/2/5 20/1/5
f  21/1/6 22/1/6 23/3/6
f  21/1/6 23/3/6 24/1/6
f  25/1/7 26/1/7 27/2/7
f  25/1/7 27/2/7 28/1/7
f  29/1/8 30/1/8 31/4/8
f  29/1/8 31/4/8 32/1/8
f  33/1/9 34/5/9 35/1/9
f  33/1/9 35/1/9 36/1/9
f  37/1/10 38/1/10 39/5/10
f  37/1/10 39/5/10 40/1/10
f  41/1/11 42/1/11 43/1/11
f  43/1/11 44/1/11 45/1/11
f  45/1/11 46/1/11 47/1/11
f  47/1/11 48/1/11 49/1/11
f  49/1/11 50/1/11 41/1/11
f  41/1/11 43/1/11 45/1/11
f  45/1/11 47/1/11 49/1/11
f  45/1/11 49/1/11 41/1/11
f  51/1/12 52/1/13 53/1/14
f  51/1/12 53/1/14 54/1/15
f  55/1/16 56/1/17 52/1/13
f  55/1/16 52/1/13 51/1/12
f  57/1/18 58/1/19 56/1/17
f  57/1/18 56/1/17 55/1/16
f  59/1/20 60/1/21 58/1/19
f  59/1/20 58/1/19 57/1/18
f  61/4/22 62/1/23 60/1/21
f  61/4/22 60/1/21 59/1/20
f  63/4/24 64/1/25 62/1/23
f  63/4/24 62/1/23 65/1/22
f  66/1/26 67/1/27 64/1/25
f  66/1/26 64/1/25 68/1/24
f  69/1/28 70/1/29 67/1/27
f  69/1/28 67/1/27 66/1/26
f  71/1/30 72/1/31 70/1/29
f  71/1/30 70/1/29 69/1/28
f  54/1/15 53/1/14 72/1/31
f  54/1/15 72/1/31 71/1/30
f  73/1/32 74/1/33 75/1/33
f  73/1/32 75/1/33 76/1/32
f  77/1/34 78/1/34 79/2/34
f  77/1/34 79/2/34 80/1/34
f  81/1/35 82/1/36 83/1/36
f  81/1/35 83/1/36 84/1/35
f  85/1/37 86/1/38 87/1/38
f  85/1/37 87/1/38 88/1/37
f  89/1/39 90/1/40 91/1/40
f  89/1/39 91/1/40 92/1/39
f  93/1/41 94/1/42 95/1/42
f  93/1/41 95/1/42 96/1/41
f  97/1/43 98/1/44 99/1/44
f  97/1/43 99/1/44 100/1/43
f  101/1/45 102/1/46 103/1/46
f  101/1/45 103/1/46 104/1/45
f  105/1/47 106/1/48 107/1/48
f  105/1/47 107/1/48 108/1/47
f  109/1/49 110/1/50 111/1/50
f  109/1/49 111/1/50 112/1/49
f  113/1/51 114/1/51 115/1/51
f  113/1/51 115/1/51 116/1/51
f  117/1/52 118/3/52 119/1/52
f  117/1/52 119/1/52 120/1/52
f  121/1/53 122/4/53 123/1/53
f  121/1/53 123/1/53 124/1/53
f  125/1/54 126/1/54 127/1/54
f  125/1/54 127/1/54 128/1/54
f  129/3/55 130/1/55 131/1/55
f  129/3/55 131/1/55 132/6/55
f  133/1/56 134/3/56 135/6/56
f  133/1/56 135/6/56 136/1/56
f  137/1/57 138/1/57 139/1/57
f  137/1/57 139/1/57 140/1/57
f  141/1/58 142/5/58 143/1/58
f  141/1/58 143/1/58 144/1/58
f  145/1/59 146/1/60 147/1/60
f  145/1/59 147/1/60 148/1/59
f  149/1/61 150/1/61 151/1/61
f  149/1/61 151/1/61 152/1/61
f  153/1/62 154/1/63 155/1/63
f  153/1/62 155/1/63 156/1/62
f  157/1/64 158/1/64 159/1/64
f  157/1/64 159/1/64 160/1/64
f  161/1/64 162/1/64 163/1/64
f  161/1/64 163/1/64 164/1/64
f  165/1/64 166/1/64 167/1/64
f  165/1/64 167/1/64 168/5/64
f  158/1/64 169/5/64 170/1/64
f  158/1/64 170/1/64 159/1/64
f  162/1/64 171/7/64 172/1/64
f  162/1/64 172/1/64 163/1/64
f  166/1/64 173/1/64 174/1/64
f  166/1/64 174/1/64 167/1/64
f  175/1/64 176/1/64 177/1/64
f  175/1/64 177/1/64 170/1/64
f  178/3/64 157/1/64 160/1/64
f  178/3/64 160/1/64 179/3/64
f  173/1/64 180/2/64 164/1/64
f  173/1/64 164/1/64 174/1/64
f  181/1/65 182/1/65 183/1/65
f  181/1/65 183/1/65 184/1/65
f  185/1/66 186/1/67 187/1/67
f  185/1/66 187/1/67 188/1/66
f  189/1/68 190/1/69 191/1/69
f  189/1/68 191/1/69 192/1/68
f  193/1/70 153/1/62 156/1/62
f  193/1/70 156/1/62 194/1/70
f  195/6/71 185/1/66 188/1/66
f  195/6/71 188/1/66 196/6/71
f  197/1/72 189/1/68 192/1/68
f  197/1/72 192/1/68 198/1/72
f  199/1/73 193/1/70 194/1/70
f  199/1/73 194/1/70 200/1/73
f  154/1/63 195/6/71 196/6/71
f  154/1/63 196/6/71 155/1/63
f  186/1/67 197/1/72 198/1/72
f  186/1/67 198/1/72 187/1/67
f  190/1/69 199/1/73 200/1/73
f  190/1/69 200/1/73 191/1/69
f  201/1/64 202/1/64 203/1/64
f  203/1/64 204/1/64 205/1/64
f  205/1/64 206/1/64 207/6/64
f  207/6/64 208/1/64 209/1/64
f  209/1/64 210/1/64 201/1/64
f  201/1/64 203/1/64 205/1/64
f  205/1/64 207/6/64 209/1/64
f  205/1/64 209/1/64 201/1/64
f  211/1/74 212/1/74 213/1/74
f  211/1/74 213/1/74 214/1/74
f  215/1/75 216/1/75 217/1/75
f  215/1/75 217/1/75 218/1/75
f  219/6/76 220/1/76 221/1/76
f  219/6/76 221/1/76 222/6/76
f  223/1/77 224/1/77 225/1/77
f  223/1/77 225/1/77 226/1/77
f  227/1/78 228/1/78 229/1/78
f  227/1/78 229/1/78 230/1/78
f  231/1/79 232/6/79 233/6/79
f  231/1/79 233/6/79 234/1/79
f  235/1/80 236/1/80 237/1/80
f  235/1/80 237/1/80 238/1/80
f  239/1/81 240/1/81 241/1/81
f  239/1/81 241/1/81 242/1/81
f  243/1/82 244/1/82 245/1/82
f  243/1/82 245/1/82 246/1/82
f  247/2/83 248/1/84 249/1/84
f  247/2/83 249/1/84 250/1/83
f  251/1/85 252/1/83 253/5/83
f  251/1/85 253/5/83 254/1/85
f  255/5/86 251/1/85 254/1/85
f  255/5/86 254/1/85 256/1/86
f  257/1/87 258/1/86 256/1/86
f  257/1/87 256/1/86 259/1/87
f  260/1/88 257/1/87 259/1/87
f  260/1/88 259/1/87 261/1/88
f  262/2/89 260/1/88 261/1/88
f  262/2/89 261/1/88 263/1/89
f  264/3/90 265/1/89 266/3/89
f  264/3/90 266/3/89 267/1/90
f  268/2/91 269/1/90 267/1/90
f  268/2/91 267/1/90 270/1/91
f  271/4/92 272/1/91 270/1/91
f  271/4/92 270/1/91 273/1/92
f  248/1/84 274/1/92 273/1/92
f  248/1/84 273/1/92 249/1/84
f  51/1/12 54/1/15 111/1/50
f  51/1/12 111/1/50 110/1/50
f  55/1/16 51/1/12 83/1/36
f  55/1/16 83/1/36 82/1/36
f  57/1/18 55/1/16 87/1/38
f  57/1/18 87/1/38 86/1/38
f  59/1/20 57/1/18 91/1/40
f  59/1/20 91/1/40 90/1/40
f  61/4/22 59/1/20 95/1/42
f  61/4/22 95/1/42 94/1/42
f  63/4/24 65/1/22 99/1/44
f  63/4/24 99/1/44 98/1/44
f  66/1/26 68/1/24 103/1/46
f  66/1/26 103/1/46 102/1/46
f  69/1/28 66/1/26 107/1/48
f  69/1/28 107/1/48 106/1/48
f  71/1/30 69/1/28 75/1/33
f  71/1/30 75/1/33 74/1/33
f  54/1/15 71/1/30 147/1/60
f  54/1/15 147/1/60 146/1/60
f  275/5/93 276/1/94 277/1/94
f  275/5/93 277/1/94 278/1/93
f  279/1/95 280/1/93 281/5/93
f  279/1/95 281/5/93 282/1/95
f  283/1/96 279/1/95 284/3/95
f  283/1/96 284/3/95 285/1/96
f  286/2/97 283/1/96 287/4/96
f  286/2/97 287/4/96 288/1/97
f  289/1/98 290/1/97 288/1/97
f  289/1/98 288/1/97 291/1/98
f  292/7/99 289/1/98 291/1/98
f  292/7/99 291/1/98 293/3/99
f  294/1/100 295/3/99 293/3/99
f  294/1/100 293/3/99 296/1/100
f  297/1/101 294/1/100 296/1/100
f  297/1/101 296/1/100 298/1/101
f  299/5/102 297/1/101 300/5/101
f  299/5/102 300/5/101 301/1/102
f  276/1/94 302/1/102 301/1/102
f  276/1/94 301/1/102 277/1/94
f  176/1/64 303/5/64 304/1/64
f  176/1/64 304/1/64 177/1/64

